<svg width="64" height="64" viewBox="0 0 64 64" xmlns="http://www.w3.org/2000/svg" role="img" aria-label="Finca Villa Luz icon">
  <defs>
    <linearGradient id="bg" x1="0%" x2="0%" y1="0%" y2="100%">
      <stop offset="0%" stop-color="#0a3728" />
      <stop offset="100%" stop-color="#1f8259" />
    </linearGradient>
    <linearGradient id="fieldLight" x1="0%" x2="0%" y1="0%" y2="100%">
      <stop offset="0%" stop-color="#7ddc7a" />
      <stop offset="100%" stop-color="#5fb659" />
    </linearGradient>
    <linearGradient id="roof" x1="0%" x2="100%" y1="0%" y2="100%">
      <stop offset="0%" stop-color="#f6c178" />
      <stop offset="100%" stop-color="#f18b3f" />
    </linearGradient>
  </defs>
  <rect width="64" height="64" rx="14" fill="url(#bg)" />
  <path d="M-4 48 Q32 26 68 48 L68 64 H-4Z" fill="#4f9e55" opacity="0.9" />
  <path d="M-4 50 Q32 32 68 50 L68 64 H-4Z" fill="url(#fieldLight)" />
  <path d="M6 47 Q32 39 58 47" fill="none" stroke="#ffffff" stroke-width="1.6" stroke-opacity="0.35" />
  <path d="M4 51 Q32 43 60 51" fill="none" stroke="#ffffff" stroke-width="1.6" stroke-opacity="0.25" />
  <circle cx="47" cy="18" r="6" fill="#ffdf8c" />
  <circle cx="47" cy="18" r="3.5" fill="#ffeec0" />
  <g transform="translate(18 20)">
    <path d="M2 18 H26 V34 H2Z" fill="#fefefe" stroke="#ffffff" stroke-width="1" stroke-linejoin="round" />
    <path d="M-1 18 L14 6 L29 18" fill="url(#roof)" stroke="#ffe7c9" stroke-width="1" stroke-linejoin="round" />
    <rect x="10.5" y="24" width="7" height="9" rx="1" fill="#1d4f35" />
    <rect x="11" y="10.5" width="6" height="6" fill="none" stroke="#f18b3f" stroke-width="1.2" />
    <path d="M11 13.5 H17" stroke="#f18b3f" stroke-width="0.9" />
    <path d="M14 10.5 V16.5" stroke="#f18b3f" stroke-width="0.9" />
    <path d="M14 24 V33" stroke="#ffffff" stroke-width="0.9" stroke-opacity="0.6" />
    <path d="M10.5 28.5 H17.5" stroke="#ffffff" stroke-width="0.9" stroke-opacity="0.6" />
  </g>
</svg>
