<svg xmlns="http://www.w3.org/2000/svg" viewBox="0 0 32 32">
  <!-- Fondo circular -->
  <circle cx="16" cy="16" r="16" fill="#2d5016"/>
  
  <!-- Silueta de vaca -->
  <g fill="#ffffff">
    <!-- Cuerpo -->
    <ellipse cx="16" cy="18" rx="8" ry="5"/>
    <!-- Cabeza -->
    <circle cx="11" cy="14" r="3.5"/>
    <!-- Orejas -->
    <ellipse cx="9.5" cy="12.5" rx="1.2" ry="2" transform="rotate(-25 9.5 12.5)"/>
    <ellipse cx="12.5" cy="12.5" rx="1.2" ry="2" transform="rotate(25 12.5 12.5)"/>
    <!-- Cuernos -->
    <path d="M 9 11 Q 8 9 7.5 8.5" stroke="#ffffff" stroke-width="1" fill="none" stroke-linecap="round"/>
    <path d="M 13 11 Q 14 9 14.5 8.5" stroke="#ffffff" stroke-width="1" fill="none" stroke-linecap="round"/>
    <!-- Patas -->
    <rect x="11" y="21" width="1.5" height="4" rx="0.5"/>
    <rect x="14" y="21" width="1.5" height="4" rx="0.5"/>
    <rect x="17" y="21" width="1.5" height="4" rx="0.5"/>
    <rect x="20" y="21" width="1.5" height="4" rx="0.5"/>
    <!-- Manchas -->
    <ellipse cx="18" cy="17" rx="2" ry="1.5" fill="#2d5016"/>
    <ellipse cx="14" cy="19" rx="1.5" ry="1" fill="#2d5016"/>
  </g>
  
  <!-- Detalle de pasto -->
  <g fill="#90c950">
    <path d="M 4 28 Q 4 26 5 25"/>
    <path d="M 7 28 Q 7 26 8 25"/>
    <path d="M 24 28 Q 24 26 25 25"/>
    <path d="M 27 28 Q 27 26 28 25"/>
  </g>
</svg>