<svg width="600" height="600" viewBox="0 0 600 600" xmlns="http://www.w3.org/2000/svg">
    <style>
        .fondo { fill: #A2D9CE; }
        .campo-verde { fill: #6AA84F; }
        .campo-marron { fill: #B45F06; }
        .granero-rojo { fill: #CC0000; }
        .techo-gris { fill: #888; }
        .silo-gris { fill: #AAA; }
        .sol-amarillo { fill: #FFD966; }
        .pasto { fill: #8FBC8F; }
        .vaca-blanca { fill: #FFFFFF; }
        .vaca-negra { fill: #000000; }
        .tractor-verde { fill: #4CAF50; }
        .tractor-amarillo { fill: #FFC107; }
        .trigo-amarillo { fill: #FFD700; }
        .nubes-blancas { fill: #FFFFFF; }
        .cerca-marron { fill: #8B4513; }
        .borde-trigo { fill: #FAD02E; }
        .texto-principal { font-family: 'Arial Black', sans-serif; font-size: 30px; font-weight: bold; fill: #333; }
        .texto-secundario { font-family: 'Arial', sans-serif; font-size: 16px; fill: #666; }
    </style>

    <rect width="600" height="600" class="fondo"/>
    <rect x="0" y="0" width="600" height="300" style="fill: #87CEEB;"/>

    <circle cx="500" cy="100" r="50" class="sol-amarillo"/>
    <g class="sol-amarillo">
        <line x1="500" y1="50" x2="500" y2="20" stroke="#FFD966" stroke-width="4"/>
        <line x1="535" y1="65" x2="550" y2="40" stroke="#FFD966" stroke-width="4"/>
        <line x1="550" y1="100" x2="580" y2="100" stroke="#FFD966" stroke-width="4"/>
        <line x1="535" y1="135" x2="550" y2="160" stroke="#FFD966" stroke-width="4"/>
        <line x1="500" y1="150" x2="500" y2="180" stroke="#FFD966" stroke-width="4"/>
    </g>

    <path d="M50 80 C 60 40, 110 40, 120 80 S 170 120, 160 80 S 210 40, 220 80" class="nubes-blancas" opacity="0.8"/>
    <path d="M280 120 C 290 80, 340 80, 350 120 S 400 160, 390 120 S 440 80, 450 120" class="nubes-blancas" opacity="0.8"/>

    <path d="M0 300 L600 300 L600 400 C450 350, 150 350, 0 400 Z" class="campo-verde"/>
    <path d="M0 400 L600 400 L600 500 C450 450, 150 450, 0 500 Z" class="campo-marron"/>

    <path d="M10 410 L590 410" stroke="#A0522D" stroke-width="3" opacity="0.5"/>
    <path d="M10 430 L590 430" stroke="#A0522D" stroke-width="3" opacity="0.5"/>
    <path d="M10 450 L590 450" stroke="#A0522D" stroke-width="3" opacity="0.5"/>
    <path d="M10 470 L590 470" stroke="#A0522D" stroke-width="3" opacity="0.5"/>

    <g transform="translate(350, 150)">
        <rect x="0" y="50" width="150" height="150" class="granero-rojo"/>
        <polygon points="-10,50 160,50 140,20 10,20" class="techo-gris"/>
        <rect x="20" y="80" width="50" height="100" fill="#8B0000"/>
        <rect x="80" y="80" width="50" height="100" fill="#8B0000"/>
        <rect x="30" y="100" width="10" height="10" fill="#FFC107"/>
        <rect x="110" y="100" width="10" height="10" fill="#FFC107"/>
    </g>

    <g transform="translate(300, 100)">
        <ellipse cx="0" cy="50" rx="30" ry="10" class="techo-gris"/>
        <rect x="-30" y="50" width="60" height="150" class="silo-gris"/>
        <rect x="-25" y="100" width="50" height="10" fill="#666"/> <rect x="-25" y="140" width="50" height="10" fill="#666"/>
        <rect x="-25" y="180" width="50" height="10" fill="#666"/>
    </g>

    <g transform="translate(100, 300)">
        <rect x="40" y="20" width="50" height="40" class="tractor-verde"/>
        <rect x="0" y="60" width="120" height="40" class="tractor-verde"/>
        <circle cx="20" cy="100" r="20" fill="#333"/>
        <circle cx="20" cy="100" r="15" class="tractor-amarillo"/>
        <circle cx="100" cy="100" r="15" fill="#333"/>
        <circle cx="100" cy="100" r="10" class="tractor-amarillo"/>
    </g>

    <g transform="translate(450, 350)">
        <rect x="0" y="0" width="60" height="40" class="vaca-blanca"/>
        <circle cx="10" cy="10" r="8" class="vaca-negra"/>
        <circle cx="40" cy="30" r="15" class="vaca-negra"/>
        <rect x="0" y="40" width="60" height="10" fill="#333"/> <g transform="translate(-100, 30)">
            <rect x="0" y="0" width="50" height="35" class="vaca-blanca"/>
            <circle cx="35" cy="5" r="7" class="vaca-negra"/>
            <rect x="0" y="0" width="15" height="15" class="vaca-negra"/>
            <rect x="0" y="35" width="50" height="8" fill="#333"/>
        </g>
    </g>

    <rect x="400" y="400" width="180" height="10" class="cerca-marron"/>
    <rect x="400" y="430" width="180" height="10" class="cerca-marron"/>
    <rect x="410" y="400" width="10" height="40" class="cerca-marron"/>
    <rect x="470" y="400" width="10" height="40" class="cerca-marron"/>
    <rect x="530" y="400" width="10" height="40" class="cerca-marron"/>

    <g class="trigo-amarillo">
        <rect x="50" y="480" width="5" height="40"/>
        <rect x="65" y="470" width="5" height="50"/>
        <rect x="80" y="490" width="5" height="30"/>
        <rect x="100" y="485" width="5" height="35"/>
        <rect x="115" y="475" width="5" height="45"/>
        <rect x="130" y="495" width="5" height="25"/>
    </g>

    <circle cx="300" cy="300" r="290" fill="none" stroke="#8B4513" stroke-width="15"/>
    <circle cx="300" cy="300" r="280" fill="none" stroke="#FAD02E" stroke-width="8"/>

    <text x="300" y="550" text-anchor="middle" class="texto-principal">FINCA "EL ROBLE"</text>
    <text x="300" y="580" text-anchor="middle" class="texto-secundario">GANADERÍA Y AGRICULTURA</text>

</svg>